<svg width="18" height="17" viewBox="0 0 18 17" fill="none" xmlns="http://www.w3.org/2000/svg">
<path d="M8.93488 2.41215C11.2892 2.41215 11.568 2.42006 12.4981 2.45812C13.0573 2.46426 13.6111 2.5564 14.1356 2.73055C14.516 2.86218 14.8614 3.06383 15.1497 3.3225C15.4379 3.58118 15.6626 3.89116 15.8093 4.23248C16.0034 4.70315 16.1061 5.2002 16.1129 5.70201C16.1549 6.53663 16.1641 6.78683 16.1641 8.89956C16.1641 11.0123 16.1553 11.2625 16.1129 12.0971C16.1061 12.5989 16.0034 13.096 15.8093 13.5666C15.6626 13.908 15.4379 14.2179 15.1497 14.4766C14.8614 14.7353 14.516 14.9369 14.1356 15.0686C13.6111 15.2427 13.0573 15.3349 12.4981 15.341C11.5684 15.3787 11.2896 15.387 8.93488 15.387C6.58014 15.387 6.30133 15.3791 5.37169 15.341C4.81249 15.3349 4.25861 15.2427 3.73412 15.0686C3.35377 14.9369 3.00834 14.7353 2.72009 14.4766C2.43183 14.2179 2.20712 13.908 2.06044 13.5666C1.86638 13.096 1.7637 12.5989 1.75686 12.0971C1.71487 11.2625 1.70563 11.0123 1.70563 8.89956C1.70563 6.78683 1.71445 6.53663 1.75686 5.70201C1.7637 5.2002 1.86638 4.70315 2.06044 4.23248C2.20712 3.89116 2.43183 3.58118 2.72009 3.3225C3.00834 3.06383 3.35377 2.86218 3.73412 2.73055C4.25861 2.5564 4.81249 2.46426 5.37169 2.45812C6.30175 2.42044 6.58055 2.41215 8.93488 2.41215ZM8.93488 0.986328C6.54151 0.986328 6.24002 0.995371 5.29947 1.03381C4.56762 1.04687 3.84354 1.17122 3.15803 1.40156C2.56997 1.60039 2.03734 1.91197 1.5973 2.31456C1.14827 2.70959 0.800766 3.18783 0.579067 3.71589C0.322379 4.33105 0.183811 4.98083 0.169254 5.63758C0.127265 6.48086 0.117188 6.75141 0.117188 8.89918C0.117188 11.047 0.127265 11.3175 0.170094 12.1615C0.18465 12.8183 0.323219 13.4681 0.579906 14.0832C0.80136 14.6112 1.14857 15.0895 1.5973 15.4846C2.03758 15.8872 2.57051 16.1988 3.15887 16.3975C3.84438 16.6279 4.56846 16.7522 5.30031 16.7653C6.24086 16.803 6.54109 16.8128 8.93572 16.8128C11.3304 16.8128 11.6306 16.8037 12.5711 16.7653C13.303 16.7522 14.0271 16.6279 14.7126 16.3975C15.2981 16.1939 15.8299 15.8828 16.2738 15.4841C16.7178 15.0855 17.0641 14.6081 17.2907 14.0825C17.5474 13.4673 17.6859 12.8175 17.7005 12.1608C17.7425 11.3175 17.7526 11.047 17.7526 8.89918C17.7526 6.75141 17.7425 6.48086 17.6997 5.63682C17.6851 4.98008 17.5465 4.3303 17.2899 3.71513C17.0684 3.18715 16.7212 2.70891 16.2725 2.3138C15.8322 1.91112 15.2992 1.59954 14.7109 1.40081C14.0254 1.17046 13.3013 1.04611 12.5694 1.03305C11.6297 0.995371 11.3283 0.986328 8.93488 0.986328Z" fill="#27272A"/>
<path d="M8.93435 4.83594C8.03877 4.83594 7.16331 5.07425 6.41867 5.52075C5.67403 5.96725 5.09365 6.60187 4.75093 7.34437C4.40821 8.08686 4.31854 8.90388 4.49326 9.69211C4.66798 10.4803 5.09924 11.2044 5.7325 11.7727C6.36577 12.3409 7.1726 12.7279 8.05096 12.8847C8.92932 13.0415 9.83977 12.9611 10.6672 12.6535C11.4946 12.346 12.2018 11.8251 12.6993 11.1569C13.1969 10.4887 13.4624 9.70305 13.4624 8.89938C13.4624 7.82169 12.9854 6.78813 12.1362 6.02609C11.287 5.26405 10.1353 4.83594 8.93435 4.83594ZM8.93435 11.537C8.35302 11.537 7.78475 11.3823 7.3014 11.0925C6.81804 10.8026 6.44131 10.3907 6.21885 9.90875C5.99639 9.42679 5.93818 8.89645 6.05159 8.3848C6.165 7.87315 6.44494 7.40318 6.856 7.0343C7.26706 6.66542 7.79078 6.41421 8.36093 6.31244C8.93109 6.21067 9.52207 6.2629 10.0591 6.46253C10.5962 6.66217 11.0553 7.00024 11.3782 7.43399C11.7012 7.86775 11.8736 8.3777 11.8736 8.89938C11.8736 9.59892 11.5639 10.2698 11.0127 10.7645C10.4615 11.2591 9.71388 11.537 8.93435 11.537Z" fill="#27272A"/>
<path d="M13.6402 5.62467C14.2245 5.62467 14.6983 5.19955 14.6983 4.67513C14.6983 4.15071 14.2245 3.72559 13.6402 3.72559C13.0558 3.72559 12.582 4.15071 12.582 4.67513C12.582 5.19955 13.0558 5.62467 13.6402 5.62467Z" fill="#27272A"/>
</svg>
