<svg width="68" height="72" viewBox="0 0 68 72" fill="none" xmlns="http://www.w3.org/2000/svg">
<path d="M43.9996 13.999C43.9996 11.8905 44.6543 9.93361 45.7735 8.32574L45.7519 8.35944C42.4086 9.35353 40.0088 12.3935 39.9992 15.9992V22.3994L43.9972 22.5991L43.9996 13.999ZM39.9992 57.9986C40.0088 61.6043 42.4086 64.6467 45.6989 65.6239L45.7543 65.6384C44.6543 64.0642 43.9972 62.1097 43.9972 60.0036C43.9972 60.0012 43.9972 60.0012 43.9972 59.9988V47.9976H39.9992V57.9986ZM49.9978 47.9976H45.9998V59.9988C46.0094 63.6045 48.4068 66.6445 51.6947 67.6241L51.7501 67.6385C50.6525 66.062 49.9978 64.1075 49.9978 61.999V47.9976ZM49.9978 11.9988C49.9978 9.89028 50.6525 7.93341 51.7717 6.32554L51.7501 6.35924C48.4068 7.35333 46.007 10.3933 45.9974 13.999V22.7002L49.9954 22.9L49.9978 11.9988ZM4.90543 9.43777C1.95447 11.1973 0.00722094 14.3697 0 17.997V55.9984C0.00722094 59.6281 1.95447 62.8005 4.85969 64.5335L4.90543 64.5576C4.33257 63.2121 3.99799 61.6452 3.99799 60.0012C3.99799 59.9988 3.99799 59.9964 3.99799 59.994V13.9966C3.99799 12.3502 4.33256 10.7833 4.93431 9.35593L4.90543 9.43777ZM10.001 9.9986C10.001 8.35222 10.3356 6.78528 10.9373 5.35794L10.9084 5.43737C7.95748 7.19687 6.01023 10.3693 6.00301 13.9966V59.9988C6.01023 64.264 8.69642 67.9009 12.4682 69.3186L12.538 69.3403C10.959 67.3377 10.0058 64.7791 10.0034 61.999L10.001 9.9986ZM59.9988 4.0004C55.582 4.0004 52.0004 7.58199 52.0004 11.9988V24.9989L32.0008 24V9.9986C32.0008 4.47698 27.5238 0 22.0022 0C16.4806 0 12.0036 4.47698 12.0036 9.9986V61.999C12.0036 67.5206 16.4806 72 22.0046 72C27.5286 72 32.0056 67.523 32.0056 61.999V45.9974H52.0052V61.999C52.0052 66.4158 55.5868 69.9974 60.0036 69.9974C64.4204 69.9974 68.002 66.4158 68.002 61.999V11.9964C68.002 7.57958 64.4204 3.99799 60.0036 3.99799L59.9988 4.0004Z" fill="#65AEF2"/>
</svg>
